<svg xmlns="http://www.w3.org/2000/svg" xmlns:xlink="http://www.w3.org/1999/xlink" width="383" zoomAndPan="magnify" viewBox="0 0 287.25 98.249997" height="131" preserveAspectRatio="xMidYMid meet" version="1.0"><defs><g/></defs><g fill="#000000" fill-opacity="1"><g transform="translate(10.466481, 65.012391)"><g><path d="M 25.453125 -30.5625 L 32.21875 -30.5625 L 17.953125 0 L 15.09375 0 L 0.859375 -30.5625 L 7.59375 -30.5625 L 16.515625 -10.625 Z M 25.453125 -30.5625 "/></g></g></g><g fill="#000000" fill-opacity="1"><g transform="translate(43.419228, 65.012391)"><g><path d="M 5.859375 -26.109375 C 4.898438 -26.109375 4.082031 -26.445312 3.40625 -27.125 C 2.726562 -27.800781 2.390625 -28.628906 2.390625 -29.609375 C 2.390625 -30.597656 2.726562 -31.4375 3.40625 -32.125 C 4.082031 -32.820312 4.898438 -33.171875 5.859375 -33.171875 C 6.804688 -33.171875 7.613281 -32.820312 8.28125 -32.125 C 8.945312 -31.4375 9.28125 -30.597656 9.28125 -29.609375 C 9.28125 -28.628906 8.945312 -27.800781 8.28125 -27.125 C 7.613281 -26.445312 6.804688 -26.109375 5.859375 -26.109375 Z M 2.859375 -23.546875 L 8.890625 -23.546875 L 8.890625 0 L 2.859375 0 Z M 2.859375 -23.546875 "/></g></g></g><g fill="#000000" fill-opacity="1"><g transform="translate(55.212837, 65.012391)"><g><path d="M 19.734375 -7.984375 L 23.546875 -4.375 C 22.472656 -2.9375 21.140625 -1.789062 19.546875 -0.9375 C 17.960938 -0.0820312 16.257812 0.34375 14.4375 0.34375 C 12.675781 0.34375 11.015625 0.0351562 9.453125 -0.578125 C 7.890625 -1.203125 6.515625 -2.070312 5.328125 -3.1875 C 4.148438 -4.300781 3.226562 -5.59375 2.5625 -7.0625 C 1.894531 -8.539062 1.5625 -10.117188 1.5625 -11.796875 C 1.5625 -13.503906 1.894531 -15.085938 2.5625 -16.546875 C 3.226562 -18.003906 4.148438 -19.296875 5.328125 -20.421875 C 6.515625 -21.546875 7.890625 -22.421875 9.453125 -23.046875 C 11.015625 -23.671875 12.675781 -23.984375 14.4375 -23.984375 C 16.3125 -23.984375 18.046875 -23.5625 19.640625 -22.71875 C 21.234375 -21.882812 22.5625 -20.742188 23.625 -19.296875 L 19.734375 -15.703125 C 19.148438 -16.566406 18.394531 -17.257812 17.46875 -17.78125 C 16.550781 -18.300781 15.539062 -18.5625 14.4375 -18.5625 C 13.164062 -18.5625 12 -18.253906 10.9375 -17.640625 C 9.882812 -17.035156 9.046875 -16.21875 8.421875 -15.1875 C 7.804688 -14.164062 7.5 -13.035156 7.5 -11.796875 C 7.5 -10.578125 7.804688 -9.453125 8.421875 -8.421875 C 9.046875 -7.398438 9.882812 -6.585938 10.9375 -5.984375 C 12 -5.378906 13.164062 -5.078125 14.4375 -5.078125 C 15.539062 -5.078125 16.550781 -5.335938 17.46875 -5.859375 C 18.394531 -6.378906 19.148438 -7.085938 19.734375 -7.984375 Z M 19.734375 -7.984375 "/></g></g></g><g fill="#000000" fill-opacity="1"><g transform="translate(80.187563, 65.012391)"><g><path d="M 10.3125 -18.5625 L 10.3125 -10.234375 C 10.3125 -8.847656 10.410156 -7.753906 10.609375 -6.953125 C 10.816406 -6.160156 11.1875 -5.601562 11.71875 -5.28125 C 12.257812 -4.96875 13.035156 -4.8125 14.046875 -4.8125 C 14.566406 -4.8125 15.054688 -4.835938 15.515625 -4.890625 C 15.984375 -4.953125 16.421875 -5 16.828125 -5.03125 L 16.828125 -0.515625 C 16.710938 -0.492188 16.195312 -0.34375 15.28125 -0.0625 C 14.375 0.207031 13.066406 0.34375 11.359375 0.34375 C 10.054688 0.34375 8.863281 0.0703125 7.78125 -0.46875 C 6.695312 -1.019531 5.835938 -1.84375 5.203125 -2.9375 C 4.566406 -4.039062 4.25 -5.414062 4.25 -7.0625 L 4.25 -18.5625 L 0.90625 -18.5625 L 0.90625 -23.546875 L 4.25 -23.546875 L 4.25 -32.6875 L 10.3125 -32.6875 L 10.3125 -23.546875 L 16.90625 -23.546875 L 16.90625 -18.5625 Z M 10.3125 -18.5625 "/></g></g></g><g fill="#000000" fill-opacity="1"><g transform="translate(98.26822, 65.012391)"><g><path d="M 14.390625 -23.984375 C 16.179688 -23.984375 17.847656 -23.671875 19.390625 -23.046875 C 20.941406 -22.421875 22.3125 -21.546875 23.5 -20.421875 C 24.6875 -19.296875 25.609375 -18.003906 26.265625 -16.546875 C 26.929688 -15.085938 27.265625 -13.503906 27.265625 -11.796875 C 27.265625 -10.117188 26.929688 -8.539062 26.265625 -7.0625 C 25.609375 -5.59375 24.6875 -4.300781 23.5 -3.1875 C 22.3125 -2.070312 20.941406 -1.203125 19.390625 -0.578125 C 17.847656 0.0351562 16.179688 0.34375 14.390625 0.34375 C 12.628906 0.34375 10.96875 0.0351562 9.40625 -0.578125 C 7.84375 -1.203125 6.46875 -2.070312 5.28125 -3.1875 C 4.101562 -4.300781 3.179688 -5.59375 2.515625 -7.0625 C 1.847656 -8.539062 1.515625 -10.117188 1.515625 -11.796875 C 1.515625 -13.503906 1.847656 -15.085938 2.515625 -16.546875 C 3.179688 -18.003906 4.101562 -19.296875 5.28125 -20.421875 C 6.46875 -21.546875 7.84375 -22.421875 9.40625 -23.046875 C 10.96875 -23.671875 12.628906 -23.984375 14.390625 -23.984375 Z M 14.390625 -5.078125 C 15.691406 -5.078125 16.863281 -5.378906 17.90625 -5.984375 C 18.945312 -6.585938 19.773438 -7.398438 20.390625 -8.421875 C 21.015625 -9.453125 21.328125 -10.578125 21.328125 -11.796875 C 21.328125 -13.035156 21.015625 -14.164062 20.390625 -15.1875 C 19.773438 -16.21875 18.945312 -17.035156 17.90625 -17.640625 C 16.863281 -18.253906 15.691406 -18.5625 14.390625 -18.5625 C 13.117188 -18.5625 11.957031 -18.253906 10.90625 -17.640625 C 9.851562 -17.035156 9.015625 -16.21875 8.390625 -15.1875 C 7.765625 -14.164062 7.453125 -13.035156 7.453125 -11.796875 C 7.453125 -10.578125 7.765625 -9.453125 8.390625 -8.421875 C 9.015625 -7.398438 9.851562 -6.585938 10.90625 -5.984375 C 11.957031 -5.378906 13.117188 -5.078125 14.390625 -5.078125 Z M 14.390625 -5.078125 "/></g></g></g><g fill="#000000" fill-opacity="1"><g transform="translate(127.145244, 65.012391)"><g><path d="M 8.796875 -23.546875 L 8.796875 -20.25 C 9.609375 -21.34375 10.628906 -22.226562 11.859375 -22.90625 C 13.085938 -23.59375 14.539062 -23.953125 16.21875 -23.984375 C 16.738281 -23.984375 17.226562 -23.894531 17.6875 -23.71875 L 17.6875 -17.171875 C 17.6875 -17.171875 17.359375 -17.226562 16.703125 -17.34375 C 16.054688 -17.457031 15.414062 -17.515625 14.78125 -17.515625 C 13.34375 -17.515625 12.179688 -17.21875 11.296875 -16.625 C 10.410156 -16.03125 9.769531 -15.265625 9.375 -14.328125 C 8.988281 -13.390625 8.796875 -12.398438 8.796875 -11.359375 L 8.796875 0 L 2.734375 0 L 2.734375 -23.546875 Z M 8.796875 -23.546875 "/></g></g></g><g fill="#000000" fill-opacity="1"><g transform="translate(146.049721, 65.012391)"><g/></g></g><g fill="#000000" fill-opacity="1"><g transform="translate(151.252773, 65.012391)"><g><path d="M 18.078125 -5.5 C 19.703125 -5.5 21.191406 -5.859375 22.546875 -6.578125 C 23.898438 -7.304688 25.015625 -8.289062 25.890625 -9.53125 L 30.703125 -5.46875 C 29.191406 -3.695312 27.351562 -2.285156 25.1875 -1.234375 C 23.019531 -0.179688 20.648438 0.34375 18.078125 0.34375 C 15.847656 0.34375 13.757812 -0.0546875 11.8125 -0.859375 C 9.863281 -1.671875 8.148438 -2.789062 6.671875 -4.21875 C 5.203125 -5.65625 4.046875 -7.3125 3.203125 -9.1875 C 2.367188 -11.070312 1.953125 -13.097656 1.953125 -15.265625 C 1.953125 -17.429688 2.367188 -19.453125 3.203125 -21.328125 C 4.046875 -23.210938 5.203125 -24.875 6.671875 -26.3125 C 8.148438 -27.757812 9.863281 -28.890625 11.8125 -29.703125 C 13.757812 -30.515625 15.847656 -30.921875 18.078125 -30.921875 C 20.648438 -30.921875 23.019531 -30.390625 25.1875 -29.328125 C 27.351562 -28.273438 29.191406 -26.851562 30.703125 -25.0625 L 25.890625 -20.984375 C 25.015625 -22.222656 23.898438 -23.203125 22.546875 -23.921875 C 21.191406 -24.648438 19.703125 -25.015625 18.078125 -25.015625 C 16.316406 -25.015625 14.695312 -24.609375 13.21875 -23.796875 C 11.75 -22.992188 10.570312 -21.859375 9.6875 -20.390625 C 8.8125 -18.929688 8.375 -17.222656 8.375 -15.265625 C 8.375 -13.359375 8.8125 -11.664062 9.6875 -10.1875 C 10.570312 -8.71875 11.75 -7.566406 13.21875 -6.734375 C 14.695312 -5.910156 16.316406 -5.5 18.078125 -5.5 Z M 18.078125 -5.5 "/></g></g></g><g fill="#000000" fill-opacity="1"><g transform="translate(183.425076, 65.012391)"><g><path d="M 2.8125 -32.6875 L 8.890625 -32.6875 L 8.890625 0 L 2.8125 0 Z M 2.8125 -32.6875 "/></g></g></g><g fill="#000000" fill-opacity="1"><g transform="translate(195.175351, 65.012391)"><g><path d="M 26.359375 -23.546875 L 26.359375 0 L 20.328125 0 L 20.328125 -1.734375 C 19.347656 -1.097656 18.28125 -0.59375 17.125 -0.21875 C 15.96875 0.15625 14.738281 0.34375 13.4375 0.34375 C 11.59375 0.34375 9.945312 0.00390625 8.5 -0.671875 C 7.050781 -1.347656 5.820312 -2.253906 4.8125 -3.390625 C 3.800781 -4.535156 3.035156 -5.835938 2.515625 -7.296875 C 1.992188 -8.765625 1.734375 -10.28125 1.734375 -11.84375 C 1.734375 -13.394531 1.992188 -14.898438 2.515625 -16.359375 C 3.035156 -17.828125 3.800781 -19.140625 4.8125 -20.296875 C 5.820312 -21.453125 7.050781 -22.359375 8.5 -23.015625 C 9.945312 -23.679688 11.59375 -24.015625 13.4375 -24.015625 C 14.6875 -24.015625 15.898438 -23.832031 17.078125 -23.46875 C 18.265625 -23.113281 19.347656 -22.644531 20.328125 -22.0625 L 20.328125 -23.546875 Z M 20.328125 -7.0625 L 20.328125 -16.515625 C 19.609375 -17.148438 18.742188 -17.648438 17.734375 -18.015625 C 16.722656 -18.378906 15.65625 -18.5625 14.53125 -18.5625 C 13.113281 -18.5625 11.875 -18.242188 10.8125 -17.609375 C 9.757812 -16.972656 8.953125 -16.144531 8.390625 -15.125 C 7.828125 -14.113281 7.546875 -13.019531 7.546875 -11.84375 C 7.546875 -10.65625 7.832031 -9.546875 8.40625 -8.515625 C 8.988281 -7.492188 9.800781 -6.664062 10.84375 -6.03125 C 11.882812 -5.394531 13.113281 -5.078125 14.53125 -5.078125 C 15.6875 -5.078125 16.757812 -5.25 17.75 -5.59375 C 18.75 -5.9375 19.609375 -6.425781 20.328125 -7.0625 Z M 20.328125 -7.0625 "/></g></g></g><g fill="#000000" fill-opacity="1"><g transform="translate(224.225799, 65.012391)"><g><path d="M 15.609375 -23.984375 C 17.804688 -23.984375 19.800781 -23.472656 21.59375 -22.453125 C 23.382812 -21.441406 24.820312 -20.023438 25.90625 -18.203125 C 26.988281 -16.390625 27.53125 -14.253906 27.53125 -11.796875 C 27.53125 -9.390625 26.988281 -7.269531 25.90625 -5.4375 C 24.820312 -3.601562 23.382812 -2.179688 21.59375 -1.171875 C 19.800781 -0.160156 17.804688 0.34375 15.609375 0.34375 C 14.367188 0.34375 13.160156 0.1875 11.984375 -0.125 C 10.816406 -0.445312 9.742188 -0.882812 8.765625 -1.4375 L 8.765625 7.59375 L 2.734375 7.59375 L 2.734375 -23.546875 L 8.765625 -23.546875 L 8.765625 -22.15625 C 9.742188 -22.738281 10.816406 -23.1875 11.984375 -23.5 C 13.160156 -23.820312 14.367188 -23.984375 15.609375 -23.984375 Z M 14.53125 -5.078125 C 15.882812 -5.078125 17.085938 -5.359375 18.140625 -5.921875 C 19.203125 -6.484375 20.039062 -7.269531 20.65625 -8.28125 C 21.28125 -9.289062 21.59375 -10.460938 21.59375 -11.796875 C 21.59375 -13.097656 21.28125 -14.253906 20.65625 -15.265625 C 20.039062 -16.273438 19.203125 -17.078125 18.140625 -17.671875 C 17.085938 -18.265625 15.882812 -18.5625 14.53125 -18.5625 C 13.394531 -18.5625 12.335938 -18.378906 11.359375 -18.015625 C 10.378906 -17.648438 9.515625 -17.148438 8.765625 -16.515625 L 8.765625 -7.0625 C 9.484375 -6.425781 10.332031 -5.9375 11.3125 -5.59375 C 12.300781 -5.25 13.375 -5.078125 14.53125 -5.078125 Z M 14.53125 -5.078125 "/></g></g></g><g fill="#000000" fill-opacity="1"><g transform="translate(253.44971, 65.012391)"><g><path d="M 1.4375 -1.90625 L 3.6875 -6.375 C 5.132812 -5.738281 6.46875 -5.257812 7.6875 -4.9375 C 8.914062 -4.625 10.269531 -4.46875 11.75 -4.46875 C 13.132812 -4.46875 14.125 -4.691406 14.71875 -5.140625 C 15.3125 -5.585938 15.609375 -6.113281 15.609375 -6.71875 C 15.609375 -7.382812 15.234375 -7.910156 14.484375 -8.296875 C 13.734375 -8.691406 12.445312 -9.078125 10.625 -9.453125 C 8.945312 -9.828125 7.441406 -10.296875 6.109375 -10.859375 C 4.785156 -11.421875 3.742188 -12.171875 2.984375 -13.109375 C 2.234375 -14.054688 1.859375 -15.28125 1.859375 -16.78125 C 1.859375 -18.914062 2.675781 -20.648438 4.3125 -21.984375 C 5.945312 -23.316406 8.125 -23.984375 10.84375 -23.984375 C 12.6875 -23.984375 14.359375 -23.789062 15.859375 -23.40625 C 17.367188 -23.03125 18.757812 -22.582031 20.03125 -22.0625 L 18.03125 -17.640625 C 16.875 -18.078125 15.660156 -18.441406 14.390625 -18.734375 C 13.117188 -19.023438 11.890625 -19.171875 10.703125 -19.171875 C 9.546875 -19.171875 8.675781 -18.976562 8.09375 -18.59375 C 7.519531 -18.21875 7.234375 -17.710938 7.234375 -17.078125 C 7.234375 -16.441406 7.628906 -15.9375 8.421875 -15.5625 C 9.222656 -15.1875 10.5625 -14.796875 12.4375 -14.390625 C 15.1875 -13.847656 17.3125 -13.023438 18.8125 -11.921875 C 20.320312 -10.828125 21.078125 -9.207031 21.078125 -7.0625 C 21.078125 -4.84375 20.25 -3.050781 18.59375 -1.6875 C 16.945312 -0.332031 14.625 0.34375 11.625 0.34375 C 9.59375 0.34375 7.816406 0.175781 6.296875 -0.15625 C 4.785156 -0.488281 3.164062 -1.070312 1.4375 -1.90625 Z M 1.4375 -1.90625 "/></g></g></g></svg>